<?xml version="1.0" encoding="UTF-8"?>
<svg xmlns="http://www.w3.org/2000/svg" version="1.1" viewBox="0 0 500 500">
  <defs>
    <style>
      .cls-1 {
        fill: #ea2825;
      }

      .cls-2 {
        fill: #fdf6f4;
      }
    </style>
  </defs>
  <!-- Generator: Adobe Illustrator 28.7.1, SVG Export Plug-In . SVG Version: 1.2.0 Build 142)  -->
  <g>
    <g id="Layer_1">
      <rect class="cls-1" width="500" height="500"/>
      <path class="cls-2" d="M248.8,266.8c30.7,0,61.3,0,92,0,8.3,0,10.7-2.4,10.7-10.7,0-4.8.1-9.7,0-14.5-.2-5.5-2.9-8.5-8.4-8.5-23.5-.1-47-.3-70.5.2-3.9,0-8.1,2.6-11.5,5-3.6,2.5-6.4,6.2-9.7,9.4-10.9,10.7-25.6,10.7-36.6,0-2.9-2.8-5.6-5.7-8.5-8.5-4.2-4.2-9.1-6.3-15.1-6.2-11.5.1-23,0-34.5,0-18.3-.2-30.2-13-31-31.2-1.6-36,18.3-57.5,48-72,29.6-14.4,61.4-16.8,93.8-14.6,23,1.6,45.2,6.5,65.5,18.1,19.8,11.3,35,26.5,40.1,49.8.4,1.8.8,3.6.7,5.4-.2,3-1.7,5-4.9,5.2-.8,0-1.7,0-2.5,0-12.9.1-12.7,0-17.2-11.9-5.8-15.3-18.1-24.4-32.2-31.2-15.1-7.3-31.2-10.5-47.9-12.1-21.8-2.1-43.2-1.2-64.3,4.2-18,4.6-34.5,12.4-46.9,26.9-8.4,9.8-10.3,21.4-9.1,33.8.5,5,3.9,7.1,8.7,7,9.3,0,18.7.6,28,0,17.1-1.2,30.8,4.6,41.9,17.7,5.4,6.3,5.8,6.1,11.7,0,6.3-6.5,12.5-13.2,21.6-15.5,4.5-1.1,9.2-1.9,13.8-1.9,22.3-.2,44.7-.2,67,0,20.3,0,32.6,12.5,32.7,32.8,0,5,0,10,0,15,0,18.1-13,31.3-31.1,31.4-34.5.1-69,0-103.5,0-26.8,0-53.7,0-80.5,0-4.1,0-7.9.3-9.7,4.5-1.8,4.3-.5,8.4,2.6,11.5,4.3,4.3,13,8.9,20.4,4.4,3.8-2.3,8-4.2,12.1-6,10.2-4.5,20.3-4.6,30.4.3,3.7,1.8,7.5,3.7,11.2,5.6,4.8,2.5,9.5,2.6,14.3-.1,2.3-1.3,4.8-2.3,7.1-3.6,13.4-7.7,26.7-7.1,39.9.3,2.3,1.3,4.8,2.4,7.1,3.7,4.1,2.3,8.3,2.2,12.4.2,4-2,8.2-3.8,12.1-6,20.8-11.6,55.8,5.3,55.2,33.6,0,4,0,8,0,12,0,21-14.5,35.4-35.6,35.4-57.7,0-115.4,0-173,0-2.3,0-4.7,0-7,0-15.6-.7-28.6-11.7-31.9-27-1.1-5,.4-6.8,5.5-6.9,3.2,0,6.3.1,9.5,0,4-.2,6.6,1.1,8.3,4.9,2.4,5.3,7.1,6.4,12.5,6.4,33.5,0,67,0,100.5,0,24.8,0,49.7,0,74.5,0,10.3,0,14.1-3.9,14.1-14.3,0-2.2,0-4.3,0-6.5,0-15.2-11.9-22.5-25.5-15.7-3.4,1.7-6.8,3.5-10.3,5.1-9.8,4.4-19.7,4.6-29.5.1-4.2-1.9-8.4-4.1-12.5-6.2-4.3-2.2-8.6-2.3-12.9-.2-4.2,2.1-8.3,4.2-12.6,6.1-10.1,4.7-20.4,4.8-30.4,0-21.4-10.6-16.4-9.8-37.1,0-21.4,10.2-50.2-4.8-54.3-28.2-3.4-19.1,10.7-36,30.4-36.1,30.7-.1,61.3,0,92,0Z"/>
    </g>
  </g>
</svg>